# Blender v3.0.1 OBJ File: ''
# www.blender.org
mtllib collider.mtl
o Torus
v 4.000000 0.000000 0.000000
v 3.000000 1.000000 0.000000
v 3.000000 -1.000000 0.000000
v 3.464101 0.000000 -2.000000
v 2.598076 1.000000 -1.500000
v 2.598076 -1.000000 -1.500000
v 2.000000 0.000000 -3.464102
v 1.500000 1.000000 -2.598076
v 1.500000 -1.000000 -2.598076
v 0.000000 0.000000 -4.000000
v 0.000000 1.000000 -3.000000
v 0.000000 -1.000000 -3.000000
v -1.999999 0.000000 -3.464102
v -1.500000 1.000000 -2.598077
v -1.500000 -1.000000 -2.598077
v -3.464101 0.000000 -2.000001
v -2.598076 1.000000 -1.500001
v -2.598076 -1.000000 -1.500001
v -4.000000 0.000000 -0.000000
v -3.000000 1.000000 -0.000000
v -3.000000 -1.000000 -0.000000
v -3.464102 0.000000 1.999999
v -2.598077 1.000000 1.500000
v -2.598077 -1.000000 1.500000
v -1.999999 0.000000 3.464102
v -1.500000 1.000000 2.598077
v -1.500000 -1.000000 2.598077
v 0.000000 0.000000 4.000000
v 0.000000 1.000000 3.000000
v 0.000000 -1.000000 3.000000
v 2.000000 0.000000 3.464102
v 1.500000 1.000000 2.598076
v 1.500000 -1.000000 2.598076
v 3.464101 0.000000 2.000000
v 2.598076 1.000000 1.500000
v 2.598076 -1.000000 1.500000
vt 0.500000 0.500000
vt 0.583333 0.500000
vt 0.583333 0.750000
vt 0.500000 0.750000
vt 0.500000 0.250000
vt 0.583333 0.250000
vt 0.666667 0.500000
vt 0.666667 0.750000
vt 0.666667 0.250000
vt 0.750000 0.500000
vt 0.750000 0.750000
vt 0.750000 0.250000
vt 0.833333 0.500000
vt 0.833333 0.750000
vt 0.833333 0.250000
vt 0.916667 0.500000
vt 0.916667 0.750000
vt 0.916667 0.250000
vt 1.000000 0.500000
vt 1.000000 0.750000
vt 1.000000 0.250000
vt 0.000000 0.500000
vt 0.083333 0.500000
vt 0.083333 0.750000
vt 0.000000 0.750000
vt 0.000000 0.250000
vt 0.083333 0.250000
vt 0.166667 0.500000
vt 0.166667 0.750000
vt 0.166667 0.250000
vt 0.250000 0.500000
vt 0.250000 0.750000
vt 0.250000 0.250000
vt 0.333333 0.500000
vt 0.333333 0.750000
vt 0.333333 0.250000
vt 0.416667 0.500000
vt 0.416667 0.750000
vt 0.416667 0.250000
vn 0.6947 0.6947 -0.1862
vn 0.6947 -0.6947 -0.1862
vn 0.5086 0.6947 -0.5086
vn 0.5086 -0.6947 -0.5086
vn 0.1862 0.6947 -0.6947
vn 0.1862 -0.6947 -0.6947
vn -0.1862 0.6947 -0.6947
vn -0.1862 -0.6947 -0.6947
vn -0.5086 0.6947 -0.5086
vn -0.5086 -0.6947 -0.5086
vn -0.6947 0.6947 -0.1862
vn -0.6947 -0.6947 -0.1862
vn -0.6947 0.6947 0.1862
vn -0.6947 -0.6947 0.1862
vn -0.5086 0.6947 0.5086
vn -0.5086 -0.6947 0.5086
vn -0.1862 0.6947 0.6947
vn -0.1862 -0.6947 0.6947
vn 0.1862 0.6947 0.6947
vn 0.1862 -0.6947 0.6947
vn 0.5086 0.6947 0.5086
vn 0.5086 -0.6947 0.5086
vn 0.6947 0.6947 0.1862
vn 0.6947 -0.6947 0.1862
vn 0.0000 1.0000 -0.0000
vn 0.0000 -1.0000 0.0000
usemtl None
s off
f 1/1/1 4/2/1 5/3/1 2/4/1
f 3/5/2 6/6/2 4/2/2 1/1/2
f 4/2/3 7/7/3 8/8/3 5/3/3
f 6/6/4 9/9/4 7/7/4 4/2/4
f 7/7/5 10/10/5 11/11/5 8/8/5
f 9/9/6 12/12/6 10/10/6 7/7/6
f 10/10/7 13/13/7 14/14/7 11/11/7
f 12/12/8 15/15/8 13/13/8 10/10/8
f 13/13/9 16/16/9 17/17/9 14/14/9
f 15/15/10 18/18/10 16/16/10 13/13/10
f 16/16/11 19/19/11 20/20/11 17/17/11
f 18/18/12 21/21/12 19/19/12 16/16/12
f 19/22/13 22/23/13 23/24/13 20/25/13
f 21/26/14 24/27/14 22/23/14 19/22/14
f 22/23/15 25/28/15 26/29/15 23/24/15
f 24/27/16 27/30/16 25/28/16 22/23/16
f 25/28/17 28/31/17 29/32/17 26/29/17
f 27/30/18 30/33/18 28/31/18 25/28/18
f 28/31/19 31/34/19 32/35/19 29/32/19
f 30/33/20 33/36/20 31/34/20 28/31/20
f 31/34/21 34/37/21 35/38/21 32/35/21
f 33/36/22 36/39/22 34/37/22 31/34/22
f 34/37/23 1/1/23 2/4/23 35/38/23
f 36/39/24 3/5/24 1/1/24 34/37/24
f 2/4/25 5/3/25 20/25/25 23/24/25
f 17/17/25 20/25/25 5/3/25 8/8/25
f 8/8/25 11/11/25 14/14/25 17/17/25
f 26/29/25 35/38/25 2/4/25 23/24/25
f 26/29/25 29/32/25 32/35/25 35/38/25
f 33/36/26 30/33/26 27/30/26 36/39/26
f 36/39/26 27/30/26 24/27/26 3/5/26
f 3/5/26 24/27/26 21/26/26 6/6/26
f 18/18/26 9/9/26 6/6/26 21/26/26
f 15/15/26 12/12/26 9/9/26 18/18/26
